<svg width="20" height="20" viewBox="0 0 20 20" fill="none" xmlns="http://www.w3.org/2000/svg">
<path d="M17 10C17 6.13401 13.866 3 10 3C6.13401 3 3 6.13401 3 10C3 13.866 6.13401 17 10 17C13.866 17 17 13.866 17 10ZM18.5 10C18.5 14.6944 14.6944 18.5 10 18.5C5.30558 18.5 1.5 14.6944 1.5 10C1.5 5.30558 5.30558 1.5 10 1.5C14.6944 1.5 18.5 5.30558 18.5 10Z" fill="#3A9BCE"/>
<path d="M10.0001 6.25C10.4143 6.25 10.7501 6.58579 10.7501 7V9.25H13C13.4142 9.25 13.75 9.58579 13.75 10C13.75 10.4142 13.4142 10.75 13 10.75H10.7501V13C10.7501 13.4142 10.4143 13.75 10.0001 13.75C9.58585 13.75 9.25006 13.4142 9.25006 13V10.75H7C6.58579 10.75 6.25 10.4142 6.25 10C6.25 9.58579 6.58579 9.25 7 9.25H9.25006V7C9.25006 6.58579 9.58585 6.25 10.0001 6.25Z" fill="#3A9BCE"/>
</svg>
