<svg width="8" height="13" viewBox="0 0 8 13" fill="none" xmlns="http://www.w3.org/2000/svg">
<path d="M-3.33786e-06 6.50003C-3.33786e-06 6.34884 0.0283451 6.20257 0.085041 6.0612C0.141737 5.91909 0.21733 5.80078 0.311823 5.70629L5.52782 0.490292C5.7357 0.282408 6.00028 0.178467 6.32156 0.178467C6.64284 0.178467 6.90741 0.282408 7.1153 0.490292C7.32318 0.698176 7.42712 0.962756 7.42712 1.28403C7.42712 1.60531 7.32318 1.86989 7.1153 2.07777L2.69304 6.50003L7.1153 10.9223C7.32318 11.1302 7.42712 11.3948 7.42712 11.716C7.42712 12.0373 7.32318 12.3019 7.1153 12.5098C6.90741 12.7176 6.64284 12.8216 6.32156 12.8216C6.00028 12.8216 5.7357 12.7176 5.52782 12.5098L0.311823 7.29377C0.198432 7.18038 0.118302 7.05754 0.0714335 6.92525C0.0238094 6.79296 -3.33786e-06 6.65122 -3.33786e-06 6.50003Z" fill="#3A9BCE"/>
</svg>
