<svg width="36" height="36" viewBox="0 0 36 36" fill="none" xmlns="http://www.w3.org/2000/svg">
<g clip-path="url(#clip0_1110_7143)">
<path d="M31.5 25.5H30V16.5C30 14.85 28.65 13.5 27 13.5H10.5V12.39C10.5 11.7 9.66 11.34 9.165 11.835L6.555 14.445C6.255 14.745 6.255 15.24 6.555 15.555L9.165 18.165C9.66 18.66 10.5 18.315 10.5 17.61V16.5H16.5V21H7.5C6.675 21 6 21.675 6 22.5V25.5C6 27.15 7.35 28.5 9 28.5H12C12 30.99 14.01 33 16.5 33C18.99 33 21 30.99 21 28.5H31.5C32.325 28.5 33 27.825 33 27C33 26.175 32.325 25.5 31.5 25.5ZM16.5 30C15.675 30 15 29.325 15 28.5C15 27.675 15.675 27 16.5 27C17.325 27 18 27.675 18 28.5C18 29.325 17.325 30 16.5 30ZM27 21H21V16.5H25.5C26.325 16.5 27 17.175 27 18V21ZM15 8.99999H25.5V10.11C25.5 10.8 26.34 11.16 26.835 10.665L29.445 8.05499C29.745 7.75499 29.745 7.25999 29.445 6.94499L26.835 4.33499C26.34 3.83999 25.5 4.18499 25.5 4.88999V5.99999H15C14.175 5.99999 13.5 6.67499 13.5 7.49999C13.5 8.32499 14.175 8.99999 15 8.99999Z" fill="url(#paint0_linear_1110_7143)"/>
</g>
<defs>
<linearGradient id="paint0_linear_1110_7143" x1="6" y1="4.10207" x2="35.4703" y2="7.08441" gradientUnits="userSpaceOnUse">
<stop stop-color="#00B1E9"/>
<stop offset="1" stop-color="#008CB8"/>
</linearGradient>
<clipPath id="clip0_1110_7143">
<rect width="36" height="36" fill="white"/>
</clipPath>
</defs>
</svg>
