<svg width="16" height="15" viewBox="0 0 16 15" fill="none" xmlns="http://www.w3.org/2000/svg">
<path fill-rule="evenodd" clip-rule="evenodd" d="M8.27903 1.91504C5.23945 1.91504 2.77539 4.3791 2.77539 7.41868C2.77539 10.4583 5.23945 12.9223 8.27903 12.9223H11.0308C11.8856 12.9223 12.313 12.9223 12.6502 12.7827C13.0997 12.5965 13.4568 12.2393 13.643 11.7898C13.7827 11.4527 13.7827 11.0253 13.7827 10.1705V7.41867C13.7827 4.3791 11.3186 1.91504 8.27903 1.91504ZM5.83334 6.80734C5.83334 6.4696 6.10713 6.19582 6.44486 6.19582H10.1139C10.4517 6.19582 10.7255 6.4696 10.7255 6.80734C10.7255 7.14507 10.4517 7.41885 10.1139 7.41885H6.44486C6.10713 7.41885 5.83334 7.14507 5.83334 6.80734ZM7.668 9.25317C7.668 8.91543 7.94178 8.64165 8.27952 8.64165H10.1141C10.4518 8.64165 10.7256 8.91543 10.7256 9.25317C10.7256 9.5909 10.4518 9.86468 10.1141 9.86468H8.27952C7.94178 9.86468 7.668 9.5909 7.668 9.25317Z" fill="#666666"/>
</svg>
