<svg width="24" height="24" viewBox="0 0 24 24" fill="none" xmlns="http://www.w3.org/2000/svg">
<path d="M4.95992 4.95989C5.31139 4.60842 5.88124 4.60842 6.23271 4.95989L11.9987 10.7259L17.7647 4.9599C18.1162 4.60843 18.6861 4.60843 19.0375 4.9599C19.389 5.31138 19.389 5.88122 19.0375 6.2327L13.2715 11.9987L19.0376 17.7647C19.389 18.1162 19.389 18.6861 19.0376 19.0375C18.6861 19.389 18.1162 19.389 17.7648 19.0375L11.9987 13.2715L6.23269 19.0375C5.88121 19.389 5.31136 19.389 4.95989 19.0375C4.60842 18.6861 4.60842 18.1162 4.95989 17.7647L10.7259 11.9987L4.95992 6.23269C4.60844 5.88121 4.60844 5.31136 4.95992 4.95989Z" fill="white"/>
</svg>
