<svg width="32" height="32" viewBox="0 0 32 32" fill="none" xmlns="http://www.w3.org/2000/svg">
<path d="M6.61322 6.61307C7.08185 6.14444 7.84165 6.14444 8.31028 6.61307L15.9983 14.3011L23.6863 6.61308C24.1549 6.14445 24.9147 6.14445 25.3834 6.61308C25.852 7.08171 25.852 7.84151 25.3834 8.31014L17.6954 15.9982L25.3834 23.6862C25.852 24.1548 25.852 24.9146 25.3834 25.3833C24.9148 25.8519 24.155 25.8519 23.6863 25.3833L15.9983 17.6952L8.31025 25.3833C7.84162 25.8519 7.08182 25.8519 6.61319 25.3833C6.14456 24.9146 6.14456 24.1548 6.61319 23.6862L14.3012 15.9982L6.61322 8.31012C6.14459 7.8415 6.14459 7.0817 6.61322 6.61307Z" fill="#626D82"/>
</svg>
