<svg width="20" height="20" viewBox="0 0 20 20" fill="none" xmlns="http://www.w3.org/2000/svg">
<path d="M7.697 6.502C7.49863 6.51609 7.31398 6.60839 7.18365 6.7586C7.05332 6.90881 6.98798 7.10463 7.002 7.303L7.502 14.303C7.51946 14.4988 7.61308 14.6799 7.7627 14.8073C7.91232 14.9348 8.10599 14.9984 8.30204 14.9845C8.49809 14.9706 8.68086 14.8803 8.81102 14.733C8.94117 14.5858 9.00831 14.3933 8.998 14.197L8.498 7.197C8.48391 6.99863 8.39161 6.81398 8.24141 6.68365C8.0912 6.55332 7.89537 6.48798 7.697 6.502ZM12.303 6.502C12.5014 6.51609 12.686 6.60839 12.8164 6.7586C12.9467 6.90881 13.012 7.10463 12.998 7.303L12.498 14.303C12.4805 14.4988 12.3869 14.6799 12.2373 14.8073C12.0877 14.9348 11.894 14.9984 11.698 14.9845C11.5019 14.9706 11.3191 14.8803 11.189 14.733C11.0588 14.5858 10.9917 14.3933 11.002 14.197L11.502 7.197C11.5161 6.99863 11.6084 6.81398 11.7586 6.68365C11.9088 6.55332 12.1046 6.48798 12.303 6.502Z" fill="url(#paint0_linear_1170_3624)"/>
<path d="M2.25 3C2.05109 3 1.86032 3.07902 1.71967 3.21967C1.57902 3.36033 1.5 3.55109 1.5 3.75C1.5 3.94892 1.57902 4.13968 1.71967 4.28033C1.86032 4.42099 2.05109 4.5 2.25 4.5H3.316L4.274 14.94C4.319 15.429 4.357 15.838 4.414 16.173C4.474 16.523 4.564 16.848 4.745 17.153C5.024 17.623 5.436 17.999 5.93 18.233C6.25 18.386 6.582 18.446 6.936 18.473C7.274 18.5 7.686 18.5 8.176 18.5H11.823C12.314 18.5 12.726 18.5 13.063 18.474C13.418 18.446 13.75 18.386 14.07 18.234C14.5636 17.9994 14.9762 17.6231 15.255 17.153C15.435 16.848 15.525 16.523 15.585 16.173C15.643 15.838 15.681 15.429 15.725 14.94L16.685 4.5H17.75C17.9489 4.5 18.1397 4.42099 18.2803 4.28033C18.421 4.13968 18.5 3.94892 18.5 3.75C18.5 3.55109 18.421 3.36033 18.2803 3.21967C18.1397 3.07902 17.9489 3 17.75 3H13.163C12.9939 2.28822 12.5897 1.65427 12.0158 1.20066C11.4418 0.747046 10.7316 0.50029 10 0.50029C9.26842 0.50029 8.55822 0.747046 7.98424 1.20066C7.41026 1.65427 7.00606 2.28822 6.837 3H2.25ZM5.766 14.774L4.822 4.5H15.178L14.234 14.774C14.187 15.299 14.153 15.649 14.107 15.919C14.063 16.179 14.015 16.304 13.965 16.388C13.8382 16.6011 13.651 16.7716 13.427 16.878C13.339 16.921 13.21 16.958 12.947 16.978C12.674 17 12.322 17 11.795 17H8.205C7.678 17 7.326 16.999 7.054 16.978C6.79 16.958 6.661 16.921 6.574 16.878C6.349 16.772 6.162 16.601 6.035 16.388C5.986 16.304 5.937 16.179 5.893 15.919C5.846 15.65 5.814 15.299 5.766 14.774ZM10 2C10.3313 1.99984 10.6559 2.09373 10.9359 2.27075C11.216 2.44778 11.44 2.70066 11.582 3H8.418C8.7 2.409 9.302 2 10 2Z" fill="url(#paint1_linear_1170_3624)"/>
<defs>
<linearGradient id="paint0_linear_1170_3624" x1="1.5" y1="0.50029" x2="20.0671" y2="2.29597" gradientUnits="userSpaceOnUse">
<stop stop-color="#D58061"/>
<stop offset="1" stop-color="#CB5383"/>
</linearGradient>
<linearGradient id="paint1_linear_1170_3624" x1="1.5" y1="0.50029" x2="20.0671" y2="2.29597" gradientUnits="userSpaceOnUse">
<stop stop-color="#D58061"/>
<stop offset="1" stop-color="#CB5383"/>
</linearGradient>
</defs>
</svg>
