<svg width="19" height="19" viewBox="0 0 19 19" fill="none" xmlns="http://www.w3.org/2000/svg">
<path d="M12.5156 2.34668L12.5156 4.69321M6.2582 2.34668L6.2582 4.69321" stroke="#666666" stroke-width="1.56436" stroke-linecap="round"/>
<path fill-rule="evenodd" clip-rule="evenodd" d="M10.9496 3.12891H7.82091L7.82091 4.69313C7.82091 5.5571 7.12052 6.25749 6.25655 6.25749C5.39258 6.25749 4.69219 5.5571 4.69219 4.69313L4.6922 3.18845C3.92953 3.26347 3.41616 3.43302 3.03299 3.81619C2.3457 4.50347 2.3457 5.60964 2.3457 7.82198V11.7329C2.3457 13.9452 2.3457 15.0514 3.03299 15.7387C3.72027 16.4259 4.82644 16.4259 7.03876 16.4259H7.03877H11.7318H11.7319C13.9442 16.4259 15.0503 16.4259 15.7376 15.7387C16.4249 15.0514 16.4249 13.9452 16.4249 11.7329V7.82198C16.4249 5.60964 16.4249 4.50347 15.7376 3.81619C15.3544 3.433 14.841 3.26346 14.0783 3.18844V4.69313C14.0783 5.5571 13.3779 6.25749 12.514 6.25749C11.65 6.25749 10.9496 5.5571 10.9496 4.69313L10.9496 3.12891ZM5.47447 9.38639C5.47447 8.95441 5.82466 8.60422 6.25665 8.60421H12.5141C12.9461 8.60421 13.2963 8.95441 13.2963 9.38639C13.2963 9.81838 12.9461 10.1686 12.5141 10.1686L6.25665 10.1686C5.82466 10.1686 5.47447 9.81838 5.47447 9.38639ZM6.25665 11.7325C5.82466 11.7325 5.47447 12.0827 5.47447 12.5147C5.47447 12.9466 5.82466 13.2968 6.25665 13.2968H12.5141C12.9461 13.2968 13.2963 12.9466 13.2963 12.5147C13.2963 12.0827 12.9461 11.7325 12.5141 11.7325L6.25665 11.7325Z" fill="#666666"/>
</svg>
