<svg width="36" height="36" viewBox="0 0 36 36" fill="none" xmlns="http://www.w3.org/2000/svg">
<path d="M13.5 33C12.675 33 11.969 32.7065 11.382 32.1195C10.794 31.5315 10.5 30.825 10.5 30V24H8.1C7.125 24 6.281 23.6435 5.568 22.9305C4.856 22.2185 4.5 21.375 4.5 20.4C4.5 19.675 4.694 19.006 5.082 18.393C5.469 17.781 6 17.325 6.675 17.025L16.5 12.675V11.7C15.625 11.4 14.906 10.8685 14.343 10.1055C13.781 9.3435 13.5 8.475 13.5 7.5C13.5 6.225 13.9315 5.156 14.7945 4.293C15.6565 3.431 16.725 3 18 3C19.05 3 19.956 3.256 20.718 3.768C21.481 4.281 21.975 4.9375 22.2 5.7375C22.325 6.2125 22.25 6.625 21.975 6.975C21.7 7.325 21.2875 7.5 20.7375 7.5C20.3875 7.5 20.0875 7.4185 19.8375 7.2555C19.5875 7.0935 19.3625 6.875 19.1625 6.6C19.0375 6.4 18.869 6.25 18.657 6.15C18.444 6.05 18.225 6 18 6C17.575 6 17.219 6.1435 16.932 6.4305C16.644 6.7185 16.5 7.075 16.5 7.5C16.5 7.925 16.644 8.2815 16.932 8.5695C17.219 8.8565 17.575 9 18 9C18.425 9 18.7815 9.1435 19.0695 9.4305C19.3565 9.7185 19.5 10.075 19.5 10.5V12.675L29.325 17.025C30 17.325 30.5315 17.781 30.9195 18.393C31.3065 19.006 31.5 19.675 31.5 20.4C31.5 21.375 31.144 22.2185 30.432 22.9305C29.719 23.6435 28.875 24 27.9 24H25.5V30C25.5 30.825 25.2065 31.5315 24.6195 32.1195C24.0315 32.7065 23.325 33 22.5 33H13.5ZM8.1 21H10.9125C11.2375 20.5 11.6065 20.125 12.0195 19.875C12.4315 19.625 12.925 19.5 13.5 19.5H22.5C23.075 19.5 23.569 19.625 23.982 19.875C24.394 20.125 24.7625 20.5 25.0875 21H27.9C28.125 21 28.2815 20.925 28.3695 20.775C28.4565 20.625 28.5 20.475 28.5 20.325C28.5 20.2 28.469 20.0935 28.407 20.0055C28.344 19.9185 28.25 19.85 28.125 19.8L18 15.3L7.875 19.8C7.75 19.85 7.656 19.9185 7.593 20.0055C7.531 20.0935 7.5 20.2 7.5 20.325C7.5 20.525 7.55 20.6875 7.65 20.8125C7.75 20.9375 7.9 21 8.1 21Z" fill="url(#paint0_linear_607_9448)"/>
<defs>
<linearGradient id="paint0_linear_607_9448" x1="4.5" y1="3" x2="33.9919" y2="5.87489" gradientUnits="userSpaceOnUse">
<stop stop-color="#00B1E9"/>
<stop offset="1" stop-color="#008CB8"/>
</linearGradient>
</defs>
</svg>
