<svg width="36" height="38" viewBox="0 0 36 38" fill="none" xmlns="http://www.w3.org/2000/svg">
<path d="M18.7524 10.8665C18.7524 9.14334 20.0874 7.76172 21.7524 7.76172H27.0024C28.6524 7.76172 30.0024 9.15887 30.0024 10.8665V14.2196C28.2624 14.8561 27.0024 16.5637 27.0024 18.5818V21.7332H18.7524V10.8665ZM9.00244 18.5663V21.7332H17.2524V10.8665C17.2524 9.14334 15.9174 7.76172 14.2524 7.76172H9.00244C7.35244 7.76172 6.00244 9.15887 6.00244 10.8665V14.2041C7.74244 14.8406 9.00244 16.5637 9.00244 18.5663ZM30.9924 15.5702C29.5224 15.8186 28.5024 17.2623 28.5024 18.8147V23.2856H7.50244V18.6284C7.50244 17.805 7.18637 17.0153 6.62376 16.433C6.06115 15.8508 5.29809 15.5236 4.50244 15.5236C3.70679 15.5236 2.94373 15.8508 2.38112 16.433C1.81851 17.0153 1.50244 17.805 1.50244 18.6284V26.3903C1.50244 28.098 2.85244 29.4951 4.50244 29.4951V32.5999H7.50244V29.4951H28.5024V32.5999H31.5024V29.4951C33.1524 29.4951 34.5024 28.098 34.5024 26.3903V18.6284C34.5024 16.75 32.8674 15.2442 30.9924 15.5702Z" fill="url(#paint0_linear_607_9440)"/>
<defs>
<linearGradient id="paint0_linear_607_9440" x1="1.50244" y1="7.76172" x2="37.1523" y2="12.8919" gradientUnits="userSpaceOnUse">
<stop stop-color="#00B1E9"/>
<stop offset="1" stop-color="#008CB8"/>
</linearGradient>
</defs>
</svg>
