<svg width="37" height="36" viewBox="0 0 37 36" fill="none" xmlns="http://www.w3.org/2000/svg">
<path d="M28.4498 13.5004H19.8998V17.4379C19.8998 20.2293 18.0829 22.5004 15.8498 22.5004C13.6167 22.5004 11.7998 20.2293 11.7998 17.4379V8.88793L8.14919 11.6301C7.06357 12.4387 6.39982 13.9082 6.39982 15.4832V18.809L1.89982 22.0575C1.03919 22.6762 0.741068 24.0543 1.24169 25.1301L5.74169 34.8754C6.23669 35.9512 7.33919 36.3168 8.19982 35.6981L14.0161 31.5004H21.6998C23.6854 31.5004 25.2998 29.4825 25.2998 27.0004H26.1998C27.1954 27.0004 27.9998 25.995 27.9998 24.7504V20.2504H28.4498C29.1979 20.2504 29.7998 19.4981 29.7998 18.5629V15.1879C29.7998 14.2528 29.1979 13.5004 28.4498 13.5004ZM36.7579 10.8707L32.2579 1.12543C31.7629 0.0496508 30.6604 -0.315974 29.7998 0.302776L23.9836 4.50043H18.2348C17.5598 4.50043 16.9017 4.73949 16.3279 5.18246L14.4436 6.65199C13.9148 7.05981 13.5998 7.78403 13.5998 8.55746V17.4379C13.5998 18.9918 14.6067 20.2504 15.8498 20.2504C17.0929 20.2504 18.0998 18.9918 18.0998 17.4379V11.2504H28.4498C30.1879 11.2504 31.5998 13.0153 31.5998 15.1879V17.1918L36.0998 13.9434C36.9604 13.3176 37.2529 11.9465 36.7579 10.8707Z" fill="url(#paint0_linear_607_9455)"/>
<defs>
<linearGradient id="paint0_linear_607_9455" x1="0.998535" y1="0.00195312" x2="40.2344" y2="4.25203" gradientUnits="userSpaceOnUse">
<stop stop-color="#00B1E9"/>
<stop offset="1" stop-color="#008CB8"/>
</linearGradient>
</defs>
</svg>
