<svg width="29" height="28" viewBox="0 0 29 28" fill="none" xmlns="http://www.w3.org/2000/svg">
<path d="M6.45117 14.5566C6.45117 13.0076 6.45117 12.2331 6.76429 11.5523C7.07741 10.8715 7.66545 10.3675 8.84153 9.35942L9.98237 8.38155C12.1081 6.55948 13.171 5.64844 14.4371 5.64844C15.7032 5.64844 16.766 6.55948 18.8918 8.38155L20.0326 9.35942C21.2087 10.3675 21.7968 10.8715 22.1099 11.5523C22.423 12.2331 22.423 13.0076 22.423 14.5566V19.3942C22.423 21.5454 22.423 22.621 21.7547 23.2893C21.0864 23.9576 20.0108 23.9576 17.8596 23.9576H11.0146C8.86335 23.9576 7.78776 23.9576 7.11946 23.2893C6.45117 22.621 6.45117 21.5454 6.45117 19.3942V14.5566Z" stroke="#1E2124" stroke-width="1.71127"/>
<path d="M17.2882 23.9584V18.2541C17.2882 17.6241 16.7774 17.1133 16.1474 17.1133H12.7248C12.0948 17.1133 11.584 17.6241 11.584 18.2541V23.9584" stroke="#1E2124" stroke-width="1.71127" stroke-linecap="round" stroke-linejoin="round"/>
</svg>
