<svg width="20" height="20" viewBox="0 0 20 20" fill="none" xmlns="http://www.w3.org/2000/svg">
<path d="M15.0008 3.73367C13.6747 2.40758 11.8761 1.6626 10.0008 1.6626C8.12539 1.6626 6.32684 2.40758 5.00076 3.73367C3.67467 5.05975 2.92969 6.8583 2.92969 8.73367C2.92969 10.609 3.67467 12.4076 5.00076 13.7337L9.39242 18.1337C9.46989 18.2118 9.56206 18.2738 9.66361 18.3161C9.76516 18.3584 9.87408 18.3802 9.98409 18.3802C10.0941 18.3802 10.203 18.3584 10.3046 18.3161C10.4061 18.2738 10.4983 18.2118 10.5758 18.1337L15.0008 13.692C16.3213 12.3714 17.0632 10.5804 17.0632 8.71283C17.0632 6.84529 16.3213 5.05423 15.0008 3.73367ZM13.8091 12.5003L10.0008 16.3253L6.19242 12.5003C5.44004 11.7473 4.92782 10.788 4.7205 9.74391C4.51318 8.69978 4.62008 7.61762 5.02768 6.63423C5.43527 5.65084 6.12527 4.81037 7.01045 4.21906C7.89563 3.62775 8.93624 3.31215 10.0008 3.31215C11.0653 3.31215 12.1059 3.62775 12.9911 4.21906C13.8762 4.81037 14.5662 5.65084 14.9738 6.63423C15.3814 7.61762 15.4883 8.69978 15.281 9.74391C15.0737 10.788 14.5615 11.7473 13.8091 12.5003ZM7.50075 6.17533C6.82802 6.85014 6.45025 7.76414 6.45025 8.717C6.45025 9.66986 6.82802 10.5839 7.50075 11.2587C8.00056 11.7593 8.63708 12.1012 9.33046 12.2415C10.0238 12.3818 10.7432 12.3142 11.3983 12.0471C12.0534 11.7801 12.6151 11.3256 13.0128 10.7405C13.4106 10.1555 13.6267 9.46606 13.6341 8.75867C13.6378 8.28634 13.5469 7.81805 13.3665 7.38149C13.1862 6.94493 12.9201 6.54896 12.5841 6.217C12.2538 5.87915 11.86 5.60995 11.4253 5.42489C10.9906 5.23983 10.5235 5.14256 10.0511 5.13869C9.57864 5.13482 9.11009 5.22441 8.6724 5.40232C8.23471 5.58023 7.83652 5.84294 7.50075 6.17533ZM11.4091 10.0753C11.0933 10.396 10.6759 10.5969 10.2284 10.6439C9.78079 10.6908 9.33081 10.5809 8.95534 10.3328C8.57988 10.0847 8.30225 9.71387 8.16993 9.28373C8.0376 8.8536 8.0588 8.39086 8.22989 7.97463C8.40098 7.55839 8.71134 7.21451 9.10791 7.00178C9.50448 6.78905 9.96263 6.72067 10.404 6.80835C10.8454 6.89602 11.2427 7.1343 11.5278 7.48244C11.813 7.83058 11.9684 8.26697 11.9674 8.717C11.9553 9.23139 11.7395 9.71994 11.3674 10.0753H11.4091Z" fill="#6A6F73"/>
</svg>
