<svg width="164" height="20" viewBox="0 0 164 20" fill="none" xmlns="http://www.w3.org/2000/svg">
<g clip-path="url(#clip0_1107_7202)">
<path d="M38.0817 17.2845H27.5643C27.5065 17.2845 27.4493 17.2739 27.3958 17.2532C27.3424 17.2326 27.2939 17.2024 27.253 17.1642C27.2121 17.1261 27.1797 17.0809 27.1575 17.031C27.1354 16.9812 27.124 16.9278 27.124 16.8739V3.12613C27.124 3.07222 27.1354 3.01883 27.1575 2.96902C27.1797 2.91921 27.2121 2.87395 27.253 2.83583C27.2939 2.7977 27.3424 2.76746 27.3958 2.74683C27.4493 2.7262 27.5065 2.71558 27.5643 2.71558H37.937C37.9948 2.71558 38.0521 2.7262 38.1055 2.74683C38.1589 2.76746 38.2075 2.7977 38.2484 2.83583C38.2892 2.87395 38.3217 2.91921 38.3438 2.96902C38.3659 3.01883 38.3773 3.07222 38.3773 3.12613V4.5103C38.3773 4.56421 38.3659 4.6176 38.3438 4.66741C38.3217 4.71722 38.2892 4.76248 38.2484 4.80061C38.2075 4.83873 38.1589 4.86897 38.1055 4.8896C38.0521 4.91024 37.9948 4.92086 37.937 4.92086H29.6464V8.84461H37.6351C37.7519 8.84461 37.8638 8.88786 37.9464 8.96486C38.029 9.04185 38.0754 9.14628 38.0754 9.25517V10.6393C38.0754 10.7482 38.029 10.8526 37.9464 10.9296C37.8638 11.0066 37.7519 11.0499 37.6351 11.0499H29.6464V15.0792H38.0817C38.1395 15.0792 38.1968 15.0898 38.2502 15.1105C38.3036 15.1311 38.3521 15.1613 38.393 15.1995C38.4339 15.2376 38.4664 15.2828 38.4885 15.3327C38.5106 15.3825 38.522 15.4359 38.522 15.4898V16.8739C38.522 16.9278 38.5106 16.9812 38.4885 17.031C38.4664 17.0809 38.4339 17.1261 38.393 17.1642C38.3521 17.2024 38.3036 17.2326 38.2502 17.2532C38.1968 17.2739 38.1395 17.2845 38.0817 17.2845Z" fill="white"/>
<path d="M52.6252 17.2844H50.4802C50.3333 17.2842 50.1898 17.2427 50.0686 17.1653C49.9474 17.0878 49.8541 16.9781 49.8009 16.8504L44.234 3.23747C44.2093 3.17855 44.2005 3.1149 44.2083 3.05208C44.2162 2.98925 44.2404 2.92917 44.2788 2.87709C44.3173 2.82501 44.3689 2.78251 44.4291 2.75331C44.4892 2.72412 44.5562 2.70911 44.624 2.70961H46.2091C46.357 2.70939 46.5014 2.75144 46.6229 2.83009C46.7444 2.90874 46.8371 3.02021 46.8885 3.14949L51.581 14.8973L56.305 3.16708C56.3572 3.03828 56.4501 2.92727 56.5714 2.84873C56.6927 2.77019 56.8367 2.72781 56.9844 2.7272H58.5003C58.5676 2.72807 58.6337 2.74396 58.6931 2.77353C58.7525 2.80311 58.8034 2.84551 58.8416 2.8972C58.8798 2.94888 58.9041 3.00834 58.9126 3.0706C58.9211 3.13287 58.9134 3.19612 58.8903 3.25506L53.3109 16.8504C53.2565 16.9785 53.1621 17.0885 53.0398 17.1659C52.9175 17.2433 52.773 17.2846 52.6252 17.2844Z" fill="white"/>
<path d="M76.9802 17.2845H75.3762C75.229 17.2852 75.0852 17.244 74.9638 17.1664C74.8424 17.0889 74.7493 16.9787 74.6968 16.8505L73.3381 13.566H66.2615L64.9028 16.8505C64.8504 16.9787 64.7573 17.0889 64.6359 17.1664C64.5145 17.244 64.3706 17.2852 64.2235 17.2845H62.7075C62.6402 17.2841 62.5741 17.2684 62.5147 17.2388C62.4554 17.2092 62.4047 17.1666 62.3669 17.1146C62.3292 17.0627 62.3055 17.0029 62.298 16.9406C62.2905 16.8782 62.2994 16.8151 62.3238 16.7567L68.092 3.14375C68.1455 3.01667 68.239 2.9077 68.3603 2.83126C68.4816 2.75481 68.625 2.71448 68.7714 2.7156H70.9289C71.0751 2.71529 71.2181 2.75594 71.3392 2.83228C71.4603 2.90862 71.5541 3.01714 71.6083 3.14375L77.3702 16.7567C77.3933 16.8156 77.4009 16.8789 77.3924 16.9411C77.384 17.0034 77.3596 17.0628 77.3214 17.1145C77.2832 17.1662 77.2323 17.2086 77.173 17.2382C77.1136 17.2678 77.0475 17.2836 76.9802 17.2845ZM67.1862 11.3432H72.4134L69.8218 5.05577L67.1862 11.3432Z" fill="white"/>
<path d="M93.7567 5.59557C93.7265 5.64453 93.6857 5.68715 93.6371 5.72077C93.5884 5.75438 93.5328 5.77827 93.4737 5.79093C93.4147 5.80359 93.3535 5.80476 93.2939 5.79435C93.2344 5.78395 93.1778 5.7622 93.1277 5.73046C91.9195 5.06312 90.5438 4.70502 89.1396 4.69234C87.0513 4.69234 85.6234 5.53692 85.6234 6.86829C85.6234 8.07651 86.8374 8.54571 88.8691 8.81551L89.9511 8.95041C92.4672 9.27299 94.9833 10.2525 94.9833 12.9563C94.9833 15.924 92.1023 17.5486 88.693 17.5486C86.5769 17.554 84.5095 16.9565 82.7676 15.836C82.7186 15.8045 82.6769 15.7641 82.6451 15.7171C82.6133 15.6702 82.5921 15.6177 82.5827 15.5629C82.5733 15.508 82.5759 15.452 82.5904 15.3981C82.6049 15.3443 82.6309 15.2937 82.6669 15.2495L83.535 14.0765C83.5688 14.0308 83.6122 13.9919 83.6625 13.9623C83.7129 13.9327 83.7692 13.9129 83.828 13.9041C83.8868 13.8953 83.9469 13.8978 84.0046 13.9113C84.0624 13.9248 84.1166 13.9491 84.164 13.9827C85.4992 14.8344 87.0753 15.2977 88.693 15.314C90.7374 15.314 92.3414 14.5047 92.3414 13.1615C92.3414 11.9885 91.1148 11.4841 88.8251 11.1967L87.6111 11.0384C85.29 10.7393 82.9752 9.71873 82.9752 7.00906C82.9752 4.0765 85.7555 2.45774 89.1396 2.45774C90.9985 2.43118 92.827 2.89911 94.4109 3.80671C94.4627 3.83549 94.5077 3.87375 94.5433 3.9192C94.5788 3.96465 94.6041 4.01634 94.6176 4.07115C94.6311 4.12596 94.6326 4.18275 94.6219 4.2381C94.6113 4.29346 94.5887 4.34622 94.5556 4.39322L93.7567 5.59557Z" fill="white"/>
<path d="M116.703 10.0001C116.703 14.352 113.319 17.5602 108.526 17.5602C103.733 17.5602 100.349 14.352 100.349 10.0001C100.349 5.64815 103.733 2.43994 108.526 2.43994C113.319 2.43994 116.703 5.64815 116.703 10.0001ZM102.984 10.0001C102.984 13.1438 105.331 15.2787 108.52 15.2787C111.709 15.2787 114.055 13.1262 114.055 10.0001C114.055 6.87396 111.709 4.72147 108.52 4.72147C105.331 4.72147 102.984 6.85636 102.984 10.0001Z" fill="white"/>
<path d="M133.103 11.0616H125.429V16.8739C125.429 16.9828 125.382 17.0872 125.3 17.1642C125.217 17.2412 125.105 17.2845 124.988 17.2845H123.347C123.23 17.2845 123.118 17.2412 123.035 17.1642C122.953 17.0872 122.906 16.9828 122.906 16.8739V3.12613C122.906 3.07222 122.918 3.01883 122.94 2.96902C122.962 2.91921 122.994 2.87395 123.035 2.83583C123.076 2.7977 123.125 2.76746 123.178 2.74683C123.231 2.7262 123.289 2.71558 123.347 2.71558H133.619C133.676 2.71558 133.734 2.7262 133.787 2.74683C133.841 2.76746 133.889 2.7977 133.93 2.83583C133.971 2.87395 134.003 2.91921 134.025 2.96902C134.048 3.01883 134.059 3.07222 134.059 3.12613V4.52789C134.059 4.63678 134.013 4.74121 133.93 4.8182C133.847 4.8952 133.735 4.93845 133.619 4.93845H125.441V8.83288H133.115C133.232 8.83288 133.344 8.87613 133.427 8.95313C133.509 9.03012 133.556 9.13455 133.556 9.24344V10.6452C133.556 10.7004 133.544 10.755 133.521 10.8059C133.498 10.8568 133.465 10.903 133.423 10.9417C133.381 10.9805 133.331 11.011 133.276 11.0316C133.221 11.0522 133.162 11.0624 133.103 11.0616Z" fill="white"/>
<path d="M142.664 17.2845H141.022C140.905 17.2845 140.793 17.2412 140.711 17.1642C140.628 17.0872 140.582 16.9828 140.582 16.8739V3.12613C140.582 3.07222 140.593 3.01883 140.615 2.96902C140.637 2.91921 140.67 2.87395 140.711 2.83583C140.751 2.7977 140.8 2.76746 140.853 2.74683C140.907 2.7262 140.964 2.71558 141.022 2.71558H142.664C142.721 2.71558 142.779 2.7262 142.832 2.74683C142.886 2.76746 142.934 2.7977 142.975 2.83583C143.016 2.87395 143.048 2.91921 143.07 2.96902C143.093 3.01883 143.104 3.07222 143.104 3.12613V16.8739C143.104 16.9828 143.058 17.0872 142.975 17.1642C142.892 17.2412 142.78 17.2845 142.664 17.2845Z" fill="white"/>
<path d="M163.579 17.2845H161.975C161.828 17.2851 161.684 17.2439 161.562 17.1664C161.441 17.0888 161.348 16.9786 161.295 16.8504L159.937 13.566H152.854L151.495 16.8504C151.443 16.9786 151.35 17.0888 151.228 17.1664C151.107 17.2439 150.963 17.2851 150.816 17.2845H149.3C149.233 17.284 149.166 17.2683 149.107 17.2387C149.048 17.2091 148.997 17.1665 148.959 17.1146C148.921 17.0626 148.898 17.0029 148.89 16.9405C148.883 16.8782 148.892 16.8151 148.916 16.7566L154.684 3.1437C154.738 3.01567 154.833 2.90605 154.955 2.82953C155.078 2.753 155.222 2.71323 155.37 2.71555H157.527C157.674 2.71524 157.817 2.75589 157.938 2.83223C158.059 2.90858 158.153 3.01709 158.207 3.1437L163.975 16.7566C163.997 16.816 164.003 16.8794 163.994 16.9416C163.984 17.0038 163.959 17.063 163.921 17.1144C163.882 17.1659 163.831 17.2081 163.772 17.2376C163.712 17.2672 163.646 17.2832 163.579 17.2845ZM153.785 11.3431H159.012L156.402 5.05573L153.785 11.3431Z" fill="white"/>
<path d="M14.1282 7.62463C11.2284 8.21114 9.28473 9.27272 6.76233 9.80645C3.81219 10.4106 1.01302 9.38416 0.679636 6.69208C0.679636 6.58651 0.490928 6.56304 0.465766 6.69208C0.270139 7.5842 0.304635 8.5069 0.566411 9.38416C1.30866 11.5836 3.6801 13.0323 7.02652 12.3754C9.92634 11.7889 11.87 10.7273 14.3924 10.1935C17.3426 9.57184 20.1417 10.6276 20.4751 13.2903C20.4751 13.3959 20.6638 13.4193 20.689 13.2903C20.8918 12.385 20.8572 11.4474 20.5884 10.5572C19.8461 8.39882 17.4747 6.95014 14.1282 7.62463Z" fill="url(#paint0_linear_1107_7202)"/>
<path d="M21.1483 8.30512C20.3557 4.59251 17.4811 2.80365 13.21 3.09104C10.7505 3.25527 8.51744 4.39896 6.63036 5.00307C4.4036 5.71861 2.88136 4.93269 2.59829 3.58371C2.59982 3.56049 2.59308 3.53745 2.57912 3.51817C2.56515 3.49889 2.54475 3.48446 2.52109 3.4771C2.49742 3.46974 2.4718 3.46988 2.44823 3.47749C2.42465 3.48511 2.40443 3.49977 2.39071 3.5192C2.07567 3.95176 1.90723 4.46259 1.90723 4.98547C1.90723 5.50835 2.07567 6.01918 2.39071 6.45175C3.08264 7.35497 4.45392 7.91802 6.29068 7.62477C8.59292 7.23181 10.8826 5.86524 13.839 5.35497C16.9841 4.81538 19.8588 5.99427 20.9973 8.38137C21.0009 8.39325 21.0073 8.40424 21.016 8.41351C21.0247 8.42279 21.0356 8.43011 21.0478 8.43493C21.06 8.43975 21.0731 8.44195 21.0864 8.44136C21.0996 8.44078 21.1125 8.43742 21.1241 8.43155C21.1358 8.42567 21.1458 8.41742 21.1536 8.40742C21.1613 8.39741 21.1666 8.38591 21.1689 8.37376C21.1712 8.36162 21.1706 8.34914 21.167 8.33725C21.1634 8.32537 21.157 8.31438 21.1483 8.30512Z" fill="url(#paint1_linear_1107_7202)"/>
<path d="M7.76912 2.38722C11.147 0.938539 14.5123 0.967864 17.3178 2.4752C17.3359 2.47804 17.3545 2.47649 17.3718 2.47068C17.3891 2.46488 17.4044 2.45502 17.4165 2.44205C17.4285 2.42908 17.4367 2.41344 17.4403 2.39665C17.444 2.37985 17.4429 2.36247 17.4373 2.34616C15.5163 0.836821 13.0867 0.00625619 10.5746 0.00012207C8.5603 0.00772785 6.58767 0.535562 4.87559 1.52505C4.74201 1.5804 4.62359 1.66323 4.52922 1.76732C4.43484 1.87141 4.36696 1.99407 4.33065 2.1261C4.29434 2.25813 4.29055 2.39611 4.31956 2.5297C4.34858 2.66329 4.40964 2.78902 4.49817 2.89748C5.12091 3.45467 6.54251 2.93267 7.76912 2.38722Z" fill="url(#paint2_linear_1107_7202)"/>
<path d="M14.8518 12.399C12.5496 12.7919 10.2599 14.1585 7.3035 14.6688C4.15836 15.2084 1.28371 14.0295 0.145166 11.6424C0.138493 11.6214 0.123147 11.6037 0.102503 11.5933C0.0818587 11.5828 0.0576084 11.5804 0.0350866 11.5867C0.0125648 11.5929 -0.00638374 11.6072 -0.0175905 11.6264C-0.0287972 11.6457 -0.0313441 11.6683 -0.024671 11.6893C0.767903 15.4019 3.64256 17.1908 7.90736 16.9034C10.3669 16.7391 12.5999 15.5955 14.487 14.9913C16.7326 14.2758 18.2612 15.0617 18.5253 16.4107C18.5287 16.432 18.539 16.4518 18.5549 16.4675C18.5707 16.4832 18.5913 16.494 18.6138 16.4984C18.6364 16.5029 18.6599 16.5008 18.6812 16.4925C18.7025 16.4841 18.7205 16.4699 18.7329 16.4518C19.048 16.0192 19.2164 15.5084 19.2164 14.9855C19.2164 14.4626 19.048 13.9518 18.7329 13.5192C18.0724 12.6394 16.6949 12.0823 14.8518 12.399Z" fill="url(#paint3_linear_1107_7202)"/>
<path d="M13.3858 17.5955C10.008 19.0441 6.64266 19.0148 3.8372 17.5075C3.81492 17.4994 3.79037 17.4985 3.76747 17.5049C3.74458 17.5113 3.72465 17.5248 3.71089 17.543C3.69713 17.5612 3.69032 17.5832 3.69155 17.6055C3.69278 17.6278 3.70198 17.649 3.71769 17.6658C5.6387 19.1752 8.06828 20.0057 10.5804 20.0119C12.5956 20.005 14.569 19.4749 16.2794 18.4811C16.4129 18.4257 16.5314 18.3429 16.6257 18.2388C16.7201 18.1347 16.788 18.0121 16.8243 17.88C16.8606 17.748 16.8644 17.61 16.8354 17.4764C16.8064 17.3428 16.7453 17.2171 16.6568 17.1087C16.034 16.5397 14.6124 17.0852 13.3858 17.5955Z" fill="url(#paint4_linear_1107_7202)"/>
</g>
<defs>
<linearGradient id="paint0_linear_1107_7202" x1="3.77445" y1="2.38709" x2="16.5561" y2="18.8221" gradientUnits="userSpaceOnUse">
<stop stop-color="#E3C62C"/>
<stop offset="0.54" stop-color="#C8468C"/>
<stop offset="1" stop-color="#008FD0"/>
</linearGradient>
<linearGradient id="paint1_linear_1107_7202" x1="6.22778" y1="0.475208" x2="19.0094" y2="16.9102" gradientUnits="userSpaceOnUse">
<stop stop-color="#E3C62C"/>
<stop offset="0.54" stop-color="#C8468C"/>
<stop offset="1" stop-color="#008FD0"/>
</linearGradient>
<linearGradient id="paint2_linear_1107_7202" x1="7.90121" y1="-0.820992" x2="20.6829" y2="15.614" gradientUnits="userSpaceOnUse">
<stop stop-color="#E3C62C"/>
<stop offset="0.54" stop-color="#C8468C"/>
<stop offset="1" stop-color="#008FD0"/>
</linearGradient>
<linearGradient id="paint3_linear_1107_7202" x1="1.31516" y1="4.29926" x2="14.0968" y2="20.7342" gradientUnits="userSpaceOnUse">
<stop stop-color="#E3C62C"/>
<stop offset="0.54" stop-color="#C8468C"/>
<stop offset="1" stop-color="#008FD0"/>
</linearGradient>
<linearGradient id="paint4_linear_1107_7202" x1="-0.35841" y1="5.60132" x2="12.4232" y2="22.0363" gradientUnits="userSpaceOnUse">
<stop stop-color="#E3C62C"/>
<stop offset="0.54" stop-color="#C8468C"/>
<stop offset="1" stop-color="#008FD0"/>
</linearGradient>
<clipPath id="clip0_1107_7202">
<rect width="164" height="20" fill="white"/>
</clipPath>
</defs>
</svg>
