<svg width="188" height="24" viewBox="0 0 188 24" fill="none" xmlns="http://www.w3.org/2000/svg">
<g clip-path="url(#clip0_1107_3326)">
<path d="M43.654 20.7412H31.5975C31.5312 20.7412 31.4656 20.7285 31.4044 20.7037C31.3431 20.679 31.2875 20.6427 31.2406 20.5969C31.1937 20.5512 31.1566 20.4969 31.1312 20.4371C31.1058 20.3773 31.0928 20.3133 31.0928 20.2486V3.75121C31.0928 3.68652 31.1058 3.62245 31.1312 3.56268C31.1566 3.5029 31.1937 3.44859 31.2406 3.40284C31.2875 3.3571 31.3431 3.32081 31.4044 3.29605C31.4656 3.27129 31.5312 3.25854 31.5975 3.25854H43.4881C43.5544 3.25854 43.6201 3.27129 43.6813 3.29605C43.7425 3.32081 43.7982 3.3571 43.8451 3.40284C43.8919 3.44859 43.9291 3.5029 43.9545 3.56268C43.9798 3.62245 43.9929 3.68652 43.9929 3.75121V5.41221C43.9929 5.47691 43.9798 5.54097 43.9545 5.60075C43.9291 5.66052 43.8919 5.71483 43.8451 5.76058C43.7982 5.80633 43.7425 5.84262 43.6813 5.86738C43.6201 5.89214 43.5544 5.90488 43.4881 5.90488H33.9843V10.6134H43.142C43.2759 10.6134 43.4043 10.6653 43.4989 10.7577C43.5936 10.8501 43.6468 10.9754 43.6468 11.1061V12.767C43.6468 12.8977 43.5936 13.023 43.4989 13.1154C43.4043 13.2078 43.2759 13.2597 43.142 13.2597H33.9843V18.0949H43.654C43.7203 18.0949 43.7859 18.1077 43.8471 18.1324C43.9084 18.1572 43.964 18.1935 44.0109 18.2392C44.0578 18.285 44.095 18.3393 44.1203 18.399C44.1457 18.4588 44.1587 18.5229 44.1587 18.5876V20.2486C44.1587 20.3133 44.1457 20.3773 44.1203 20.4371C44.095 20.4969 44.0578 20.5512 44.0109 20.5969C43.964 20.6427 43.9084 20.679 43.8471 20.7037C43.7859 20.7285 43.7203 20.7412 43.654 20.7412Z" fill="black"/>
<path d="M60.3242 20.7412H57.8653C57.6968 20.741 57.5324 20.6912 57.3934 20.5983C57.2545 20.5054 57.1475 20.3736 57.0865 20.2204L50.705 3.88491C50.6767 3.81421 50.6666 3.73783 50.6755 3.66244C50.6845 3.58705 50.7123 3.51496 50.7564 3.45246C50.8005 3.38996 50.8596 3.33896 50.9286 3.30393C50.9975 3.26889 51.0743 3.25088 51.152 3.25148H52.9691C53.1387 3.25122 53.3042 3.30168 53.4434 3.39606C53.5827 3.49044 53.6889 3.62421 53.7479 3.77934L59.1272 17.8767L64.5425 3.80045C64.6023 3.64588 64.7088 3.51267 64.8478 3.41842C64.9869 3.32417 65.152 3.27332 65.3212 3.27259H67.059C67.1362 3.27363 67.212 3.2927 67.28 3.32819C67.3481 3.36368 67.4065 3.41457 67.4502 3.47659C67.494 3.53861 67.5219 3.60996 67.5316 3.68468C67.5414 3.75939 67.5326 3.83529 67.5061 3.90602L61.1101 20.2204C61.0479 20.3742 60.9396 20.5062 60.7994 20.599C60.6592 20.6919 60.4936 20.7415 60.3242 20.7412Z" fill="black"/>
<path d="M88.2449 20.7413H86.4061C86.2375 20.7421 86.0725 20.6926 85.9334 20.5996C85.7943 20.5065 85.6875 20.3743 85.6274 20.2205L84.0698 16.2791H75.9577L74.4001 20.2205C74.34 20.3743 74.2333 20.5065 74.0941 20.5996C73.955 20.6926 73.7901 20.7421 73.6214 20.7413H71.8836C71.8064 20.7407 71.7306 20.7219 71.6626 20.6864C71.5945 20.6508 71.5364 20.5997 71.4931 20.5374C71.4498 20.4751 71.4227 20.4034 71.4141 20.3286C71.4055 20.2537 71.4157 20.178 71.4437 20.1078L78.056 3.77236C78.1173 3.61985 78.2246 3.4891 78.3636 3.39736C78.5027 3.30562 78.667 3.25723 78.8348 3.25857H81.3081C81.4757 3.2582 81.6396 3.30698 81.7784 3.39859C81.9173 3.4902 82.0247 3.62042 82.0869 3.77236L88.692 20.1078C88.7184 20.1786 88.7272 20.2545 88.7175 20.3292C88.7078 20.4039 88.6798 20.4753 88.6361 20.5373C88.5923 20.5993 88.5339 20.6502 88.4659 20.6857C88.3978 20.7212 88.322 20.7402 88.2449 20.7413ZM77.0177 13.6117H83.0098L80.039 6.06678L77.0177 13.6117Z" fill="black"/>
<path d="M107.476 6.71444C107.442 6.77319 107.395 6.82434 107.339 6.86468C107.283 6.90502 107.22 6.93368 107.152 6.94887C107.084 6.96407 107.014 6.96547 106.946 6.95298C106.877 6.9405 106.813 6.9144 106.755 6.87631C105.37 6.07551 103.793 5.64578 102.183 5.63056C99.7895 5.63056 98.1526 6.64405 98.1526 8.24171C98.1526 9.69156 99.5443 10.2546 101.873 10.5784L103.114 10.7402C105.998 11.1273 108.882 12.3027 108.882 15.5473C108.882 19.1086 105.58 21.0581 101.672 21.0581C99.2457 21.0646 96.8757 20.3475 94.879 19.003C94.8227 18.9652 94.775 18.9166 94.7385 18.8603C94.7021 18.804 94.6778 18.741 94.667 18.6752C94.6562 18.6094 94.6592 18.5422 94.6758 18.4775C94.6924 18.4129 94.7223 18.3522 94.7636 18.2992L95.7587 16.8916C95.7974 16.8367 95.8471 16.7901 95.9049 16.7545C95.9626 16.719 96.0271 16.6952 96.0945 16.6847C96.1619 16.6741 96.2308 16.6771 96.297 16.6933C96.3632 16.7095 96.4254 16.7386 96.4797 16.779C98.0103 17.801 99.8171 18.357 101.672 18.3766C104.015 18.3766 105.854 17.4053 105.854 15.7936C105.854 14.386 104.448 13.7807 101.823 13.4358L100.431 13.2458C97.7705 12.8869 95.1169 11.6622 95.1169 8.41062C95.1169 4.89156 98.3041 2.94904 102.183 2.94904C104.314 2.91717 106.41 3.47869 108.226 4.56781C108.286 4.60234 108.337 4.64826 108.378 4.7028C108.419 4.75734 108.448 4.81936 108.463 4.88513C108.479 4.9509 108.48 5.01906 108.468 5.08548C108.456 5.1519 108.43 5.21522 108.392 5.27162L107.476 6.71444Z" fill="black"/>
<path d="M133.782 11.9999C133.782 17.2222 129.902 21.072 124.408 21.072C118.913 21.072 115.034 17.2222 115.034 11.9999C115.034 6.77759 118.913 2.92773 124.408 2.92773C129.902 2.92773 133.782 6.77759 133.782 11.9999ZM118.055 11.9999C118.055 15.7723 120.745 18.3342 124.401 18.3342C128.056 18.3342 130.746 15.7512 130.746 11.9999C130.746 8.24856 128.056 5.66556 124.401 5.66556C120.745 5.66556 118.055 8.22744 118.055 11.9999Z" fill="black"/>
<path d="M152.579 13.2738H143.782V20.2486C143.782 20.3792 143.728 20.5046 143.634 20.5969C143.539 20.6893 143.411 20.7412 143.277 20.7412H141.395C141.261 20.7412 141.133 20.6893 141.038 20.5969C140.943 20.5046 140.89 20.3792 140.89 20.2486V3.75121C140.89 3.68652 140.903 3.62245 140.929 3.56268C140.954 3.5029 140.991 3.44859 141.038 3.40284C141.085 3.3571 141.14 3.32081 141.202 3.29605C141.263 3.27129 141.329 3.25854 141.395 3.25854H153.17C153.236 3.25854 153.302 3.27129 153.363 3.29605C153.425 3.32081 153.48 3.3571 153.527 3.40284C153.574 3.44859 153.611 3.5029 153.636 3.56268C153.662 3.62245 153.675 3.68652 153.675 3.75121V5.43333C153.675 5.56399 153.622 5.6893 153.527 5.78169C153.432 5.87409 153.304 5.92599 153.17 5.92599H143.796V10.5993H152.593C152.727 10.5993 152.856 10.6512 152.95 10.7436C153.045 10.836 153.098 10.9613 153.098 11.092V12.7741C153.098 12.8403 153.085 12.9059 153.058 12.967C153.032 13.028 152.994 13.0835 152.946 13.1299C152.897 13.1764 152.84 13.2131 152.777 13.2378C152.714 13.2625 152.647 13.2747 152.579 13.2738Z" fill="black"/>
<path d="M163.54 20.7412H161.658C161.524 20.7412 161.395 20.6893 161.301 20.5969C161.206 20.5046 161.153 20.3792 161.153 20.2486V3.75121C161.153 3.68652 161.166 3.62245 161.191 3.56268C161.217 3.5029 161.254 3.44859 161.301 3.40284C161.348 3.3571 161.403 3.32081 161.464 3.29605C161.526 3.27129 161.591 3.25854 161.658 3.25854H163.54C163.606 3.25854 163.672 3.27129 163.733 3.29605C163.794 3.32081 163.85 3.3571 163.897 3.40284C163.943 3.44859 163.981 3.5029 164.006 3.56268C164.031 3.62245 164.044 3.68652 164.044 3.75121V20.2486C164.044 20.3792 163.991 20.5046 163.897 20.5969C163.802 20.6893 163.673 20.7412 163.54 20.7412Z" fill="black"/>
<path d="M187.516 20.7414H185.677C185.508 20.7422 185.343 20.6927 185.204 20.5997C185.065 20.5066 184.958 20.3744 184.898 20.2205L183.341 16.2792H175.221L173.664 20.2205C173.604 20.3744 173.497 20.5066 173.358 20.5997C173.219 20.6927 173.054 20.7422 172.885 20.7414H171.147C171.07 20.7408 170.994 20.722 170.926 20.6864C170.858 20.6509 170.8 20.5998 170.757 20.5375C170.713 20.4751 170.686 20.4035 170.678 20.3286C170.669 20.2538 170.679 20.1781 170.707 20.1079L177.32 3.77244C177.381 3.61881 177.49 3.48726 177.63 3.39543C177.771 3.3036 177.937 3.25588 178.106 3.25866H180.579C180.747 3.25829 180.91 3.30707 181.049 3.39868C181.188 3.49029 181.296 3.62051 181.358 3.77244L187.97 20.1079C187.995 20.1792 188.002 20.2553 187.992 20.3299C187.981 20.4045 187.952 20.4756 187.908 20.5373C187.864 20.5991 187.805 20.6497 187.737 20.6852C187.669 20.7206 187.593 20.7399 187.516 20.7414ZM176.289 13.6117H182.281L179.288 6.06687L176.289 13.6117Z" fill="black"/>
<path d="M16.1938 9.14946C12.8696 9.85327 10.6414 11.1272 7.74991 11.7676C4.36805 12.4926 1.15924 11.2609 0.77707 8.0304C0.77707 7.90371 0.560746 7.87556 0.531903 8.0304C0.307647 9.10095 0.347191 10.2082 0.647276 11.2609C1.49815 13.9002 4.21662 15.6386 8.05277 14.8503C11.3769 14.1465 13.6051 12.8726 16.4966 12.2322C19.8785 11.4861 23.0873 12.753 23.4695 15.9483C23.4695 16.075 23.6858 16.1031 23.7146 15.9483C23.9471 14.8619 23.9075 13.7368 23.5993 12.6685C22.7484 10.0785 20.0299 8.34007 16.1938 9.14946Z" fill="url(#paint0_linear_1107_3326)"/>
<path d="M24.2424 9.96609C23.3338 5.51096 20.0385 3.36433 15.1424 3.7092C12.3229 3.90627 9.76311 5.2787 7.59987 6.00363C5.04725 6.86228 3.30223 5.91917 2.97775 4.30041C2.9795 4.27254 2.97177 4.2449 2.95576 4.22176C2.93976 4.19863 2.91637 4.1813 2.88924 4.17247C2.86211 4.16364 2.83275 4.16381 2.80572 4.17294C2.7787 4.18208 2.75552 4.19967 2.73979 4.22299C2.37864 4.74207 2.18555 5.35506 2.18555 5.98252C2.18555 6.60997 2.37864 7.22297 2.73979 7.74205C3.53298 8.82592 5.10493 9.50158 7.21049 9.14967C9.84964 8.67812 12.4744 7.03824 15.8634 6.42592C19.4688 5.77841 22.7642 7.19307 24.0693 10.0576C24.0734 10.0719 24.0807 10.085 24.0907 10.0962C24.1007 10.1073 24.1132 10.1161 24.1271 10.1219C24.1411 10.1277 24.1562 10.1303 24.1714 10.1296C24.1865 10.1289 24.2013 10.1249 24.2147 10.1178C24.228 10.1108 24.2396 10.1009 24.2484 10.0889C24.2573 10.0768 24.2633 10.063 24.266 10.0485C24.2686 10.0339 24.2679 10.0189 24.2638 10.0047C24.2597 9.99039 24.2524 9.97721 24.2424 9.96609Z" fill="url(#paint1_linear_1107_3326)"/>
<path d="M8.9037 2.86452C12.7759 1.1261 16.6337 1.16129 19.8497 2.97009C19.8705 2.97351 19.8918 2.97164 19.9116 2.96468C19.9314 2.95771 19.9491 2.94587 19.9629 2.93031C19.9766 2.91475 19.9861 2.89598 19.9902 2.87583C19.9944 2.85568 19.9932 2.83481 19.9867 2.81525C17.7846 1.00404 14.9994 0.00736095 12.1197 0C9.81067 0.00912694 7.54936 0.642528 5.58673 1.82991C5.4336 1.89634 5.29785 1.99573 5.18967 2.12064C5.08148 2.24555 5.00367 2.39273 4.96204 2.55117C4.92042 2.70961 4.91608 2.87518 4.94934 3.03549C4.98259 3.1958 5.05259 3.34668 5.15409 3.47683C5.86796 4.14545 7.4976 3.51906 8.9037 2.86452Z" fill="url(#paint2_linear_1107_3326)"/>
<path d="M17.0235 14.8785C14.3844 15.3501 11.7597 16.99 8.37059 17.6023C4.76519 18.2498 1.46985 16.8351 0.164695 13.9706C0.157046 13.9454 0.139453 13.9242 0.115788 13.9117C0.0921231 13.8991 0.064324 13.8963 0.0385063 13.9037C0.0126886 13.9112 -0.00903289 13.9284 -0.0218796 13.9515C-0.0347263 13.9746 -0.037646 14.0017 -0.0299963 14.0269C0.878565 18.482 4.1739 20.6287 9.06282 20.2838C11.8822 20.0867 14.4421 18.7143 16.6053 17.9894C19.1796 17.1307 20.9318 18.0738 21.2347 19.6926C21.2385 19.7182 21.2504 19.7419 21.2685 19.7608C21.2866 19.7796 21.3102 19.7925 21.3361 19.7979C21.362 19.8033 21.3889 19.8008 21.4133 19.7907C21.4377 19.7807 21.4584 19.7637 21.4726 19.7419C21.8338 19.2228 22.0269 18.6098 22.0269 17.9823C22.0269 17.3549 21.8338 16.7419 21.4726 16.2228C20.7155 15.1671 19.1363 14.4985 17.0235 14.8785Z" fill="url(#paint3_linear_1107_3326)"/>
<path d="M15.3441 21.1144C11.4719 22.8528 7.61411 22.8176 4.39809 21.0089C4.37255 20.9991 4.3444 20.998 4.31816 21.0058C4.29191 21.0135 4.26907 21.0296 4.25329 21.0515C4.23751 21.0733 4.22971 21.0998 4.23112 21.1265C4.23253 21.1532 4.24308 21.1787 4.26108 21.1989C6.46322 23.0101 9.24835 24.0068 12.1281 24.0141C14.4382 24.0058 16.7004 23.3698 18.6611 22.1772C18.8142 22.1108 18.9499 22.0114 19.0581 21.8865C19.1663 21.7615 19.2441 21.6144 19.2857 21.4559C19.3274 21.2975 19.3317 21.1319 19.2985 20.9716C19.2652 20.8113 19.1952 20.6604 19.0937 20.5303C18.3798 19.8476 16.7502 20.5021 15.3441 21.1144Z" fill="url(#paint4_linear_1107_3326)"/>
</g>
<defs>
<linearGradient id="paint0_linear_1107_3326" x1="4.32478" y1="2.86441" x2="19.8211" y2="21.8991" gradientUnits="userSpaceOnUse">
<stop stop-color="#E3C62C"/>
<stop offset="0.54" stop-color="#C8468C"/>
<stop offset="1" stop-color="#008FD0"/>
</linearGradient>
<linearGradient id="paint1_linear_1107_3326" x1="7.13838" y1="0.5702" x2="22.6347" y2="19.6049" gradientUnits="userSpaceOnUse">
<stop stop-color="#E3C62C"/>
<stop offset="0.54" stop-color="#C8468C"/>
<stop offset="1" stop-color="#008FD0"/>
</linearGradient>
<linearGradient id="paint2_linear_1107_3326" x1="9.05513" y1="-0.985337" x2="24.5515" y2="18.0493" gradientUnits="userSpaceOnUse">
<stop stop-color="#E3C62C"/>
<stop offset="0.54" stop-color="#C8468C"/>
<stop offset="1" stop-color="#008FD0"/>
</linearGradient>
<linearGradient id="paint3_linear_1107_3326" x1="1.5059" y1="5.15887" x2="17.0023" y2="24.1935" gradientUnits="userSpaceOnUse">
<stop stop-color="#E3C62C"/>
<stop offset="0.54" stop-color="#C8468C"/>
<stop offset="1" stop-color="#008FD0"/>
</linearGradient>
<linearGradient id="paint4_linear_1107_3326" x1="-0.411515" y1="6.72147" x2="15.0848" y2="25.7561" gradientUnits="userSpaceOnUse">
<stop stop-color="#E3C62C"/>
<stop offset="0.54" stop-color="#C8468C"/>
<stop offset="1" stop-color="#008FD0"/>
</linearGradient>
<clipPath id="clip0_1107_3326">
<rect width="188" height="24" fill="white"/>
</clipPath>
</defs>
</svg>
