<svg width="29" height="28" viewBox="0 0 29 28" fill="none" xmlns="http://www.w3.org/2000/svg">
<path d="M3.31975 6.73805C2.8726 7.49957 2.61621 8.38661 2.61621 9.33353V18.6669C2.61621 21.5019 4.91448 23.8002 7.74954 23.8002H20.5829C23.4179 23.8002 25.7162 21.5019 25.7162 18.6668L25.7161 9.3335C25.7161 8.38672 25.4598 7.4998 25.0128 6.73836L17.7963 13.9549C15.7916 15.9596 12.5414 15.9597 10.5367 13.955L3.31975 6.73805Z" fill="url(#paint0_linear_636_9726)"/>
<path d="M23.6007 5.18057C22.7537 4.56396 21.7107 4.2002 20.5828 4.2002H7.74954C6.62177 4.2002 5.57893 4.56388 4.73192 5.18036L12.0216 12.47C13.2062 13.6546 15.1268 13.6546 16.3114 12.47L23.6007 5.18057Z" fill="url(#paint1_linear_636_9726)"/>
<defs>
<linearGradient id="paint0_linear_636_9726" x1="2.61621" y1="4.2002" x2="27.6795" y2="7.3996" gradientUnits="userSpaceOnUse">
<stop stop-color="#00B1E9"/>
<stop offset="1" stop-color="#008CB8"/>
</linearGradient>
<linearGradient id="paint1_linear_636_9726" x1="2.61621" y1="4.2002" x2="27.6795" y2="7.3996" gradientUnits="userSpaceOnUse">
<stop stop-color="#00B1E9"/>
<stop offset="1" stop-color="#008CB8"/>
</linearGradient>
</defs>
</svg>
