<svg width="36" height="36" viewBox="0 0 36 36" fill="none" xmlns="http://www.w3.org/2000/svg">
<path d="M17.7 16.35C14.295 15.465 13.2 14.55 13.2 13.125C13.2 11.49 14.715 10.35 17.25 10.35C19.92 10.35 20.91 11.625 21 13.5H24.315C24.21 10.92 22.635 8.55 19.5 7.785V4.5H15V7.74C12.09 8.37 9.74998 10.26 9.74998 13.155C9.74998 16.62 12.615 18.345 16.8 19.35C20.55 20.25 21.3 21.57 21.3 22.965C21.3 24 20.565 25.65 17.25 25.65C14.16 25.65 12.945 24.27 12.78 22.5H9.47998C9.65998 25.785 12.12 27.63 15 28.245V31.5H19.5V28.275C22.425 27.72 24.75 26.025 24.75 22.95C24.75 18.69 21.105 17.235 17.7 16.35Z" fill="url(#paint0_linear_607_9433)"/>
<defs>
<linearGradient id="paint0_linear_607_9433" x1="9.47998" y1="4.5" x2="26.2548" y2="5.52757" gradientUnits="userSpaceOnUse">
<stop stop-color="#00B1E9"/>
<stop offset="1" stop-color="#008CB8"/>
</linearGradient>
</defs>
</svg>
