<svg width="20" height="20" viewBox="0 0 20 20" fill="none" xmlns="http://www.w3.org/2000/svg">
<path fill-rule="evenodd" clip-rule="evenodd" d="M0 9.625C0 4.30926 4.30926 0 9.625 0C14.9407 0 19.25 4.30926 19.25 9.625C19.25 14.9407 14.9407 19.25 9.625 19.25C4.30926 19.25 0 14.9407 0 9.625Z" fill="#EE8208"/>
<path d="M12.6804 6.96373C12.6804 8.52864 11.3069 9.8016 9.61722 9.8016C7.92793 9.8016 6.55407 8.52864 6.55407 6.96373C6.55407 5.3983 7.92793 4.125 9.61722 4.125C11.3069 4.125 12.6804 5.3983 12.6804 6.96373ZM10.8855 6.96372C10.8855 6.3156 10.3166 5.78858 9.61723 5.78858C8.91838 5.78858 8.34893 6.3156 8.34893 6.96372C8.34893 7.61132 8.91838 8.13868 9.61723 8.13868C10.3166 8.13868 10.8855 7.61132 10.8855 6.96372Z" fill="white"/>
<path d="M10.8644 12.1185C11.4879 11.9868 12.0893 11.7582 12.6431 11.4359C13.0623 11.191 13.1886 10.6775 12.9245 10.2891C12.6605 9.89983 12.1068 9.78264 11.687 10.0276C10.4322 10.7587 8.81679 10.7586 7.56279 10.0276C7.14289 9.78264 6.58902 9.89983 6.32565 10.2891C6.06154 10.6779 6.18745 11.191 6.60662 11.4359C7.16049 11.7579 7.76183 11.9868 8.38535 12.1185L6.67278 13.7055C6.32271 14.0302 6.32271 14.5567 6.67315 14.8814C6.84854 15.0436 7.07801 15.1248 7.30748 15.1248C7.53731 15.1248 7.76714 15.0436 7.94254 14.8814L9.62469 13.322L11.3083 14.8814C11.6584 15.2062 12.2263 15.2062 12.5768 14.8814C12.9276 14.5567 12.9276 14.0299 12.5768 13.7055L10.8644 12.1185Z" fill="white"/>
</svg>
