<svg width="29" height="28" viewBox="0 0 29 28" fill="none" xmlns="http://www.w3.org/2000/svg">
<path d="M17.5469 17.2186C19.1267 15.6386 21.6139 15.493 23.2677 16.8835L24.4627 17.8902C25.8265 19.0379 25.9652 21.1068 24.7701 22.51C24.1184 23.2639 23.2011 23.7375 22.2091 23.8322C18.3905 24.3466 14.3848 22.5065 10.1895 18.3109C5.99425 14.1153 4.15318 10.1081 4.66748 6.29039C4.6942 5.99169 4.75627 5.69721 4.85239 5.41313C5.07479 4.76054 5.46739 4.17918 5.98962 3.7291C7.39383 2.53514 9.46142 2.67269 10.6091 4.03771L11.6145 5.23282C13.0072 6.88448 12.8627 9.37296 11.2828 10.953L10.4253 11.8094C10.1967 12.0385 10.1218 12.3794 10.2334 12.6832C10.5455 13.5362 11.3418 14.6019 12.62 15.8802C13.8994 17.1597 14.965 17.9549 15.8167 18.2681C16.1207 18.3795 16.4617 18.3042 16.6905 18.0751L17.5469 17.2186Z" fill="url(#paint0_linear_636_9719)"/>
<defs>
<linearGradient id="paint0_linear_636_9719" x1="4.58325" y1="2.9165" x2="27.4708" y2="5.3955" gradientUnits="userSpaceOnUse">
<stop stop-color="#00B1E9"/>
<stop offset="1" stop-color="#008CB8"/>
</linearGradient>
</defs>
</svg>
