<svg width="17" height="17" viewBox="0 0 17 17" fill="none" xmlns="http://www.w3.org/2000/svg">
<path d="M7.81739 1.3728H9.18263C10.1351 1.3728 10.8956 1.37279 11.5099 1.42298C12.1399 1.47445 12.6818 1.58244 13.1795 1.83602C13.9791 2.24348 14.6293 2.89365 15.0368 3.69333C15.2904 4.19103 15.3984 4.73291 15.4498 5.36292C15.5 5.97718 15.5 6.73774 15.5 7.69019L15.5 9.05967C15.5 10.0121 15.5 10.7727 15.4499 11.3869C15.3984 12.0169 15.2904 12.5588 15.0368 13.0565C14.6293 13.8562 13.9792 14.5064 13.1795 14.9139C12.6818 15.1674 12.1399 15.2754 11.5099 15.3269C10.8956 15.3771 10.1351 15.3771 9.18265 15.3771H7.81737C6.86494 15.3771 6.10439 15.3771 5.49013 15.3269C4.86012 15.2754 4.31824 15.1674 3.82054 14.9139C3.02085 14.5064 2.37068 13.8562 1.96322 13.0565C1.70963 12.5588 1.60165 12.017 1.55018 11.3869C1.49999 10.7727 1.49999 10.0121 1.5 9.05969V7.69019C1.49999 6.73775 1.49999 5.9772 1.55018 5.36294C1.60165 4.73292 1.70963 4.19104 1.96322 3.69334C2.37068 2.89365 3.02085 2.24349 3.82054 1.83603C4.31824 1.58244 4.86012 1.47445 5.49013 1.42298C6.1044 1.37279 6.86494 1.3728 7.81739 1.3728ZM5.61228 2.918C5.07503 2.96189 4.75252 3.04465 4.50153 3.17254C3.98408 3.43619 3.56338 3.85688 3.29973 4.37433C3.17184 4.62532 3.08909 4.94783 3.04519 5.48508C3.00058 6.03109 3 6.73034 3 7.7228V9.02708C3 9.58695 3.00019 10.0535 3.00836 10.4519L4.28247 9.17769C4.98697 8.47314 6.13671 8.4981 6.80997 9.23257L7.61172 10.1072L10.071 7.64795C10.9497 6.76927 12.3743 6.76927 13.253 7.64795L14 8.395L14 7.72278C14 6.73032 13.9994 6.03108 13.9548 5.48507C13.9109 4.94782 13.8282 4.62532 13.7003 4.37432C13.4366 3.85688 13.0159 3.43618 12.4985 3.17253C12.2475 3.04465 11.925 2.96189 11.3877 2.918C10.8417 2.87339 10.1425 2.8728 9.15002 2.8728H7.85C6.85753 2.8728 6.15829 2.87339 5.61228 2.918ZM13.9905 10.5068L12.1923 8.70861C11.8994 8.41571 11.4245 8.41571 11.1316 8.70861L8.48775 11.3525C7.98453 11.8557 7.16331 11.8379 6.68243 11.3133L5.70424 10.2462C5.60806 10.1412 5.44381 10.1377 5.34317 10.2383L3.26923 12.3124C3.2791 12.334 3.28926 12.355 3.29973 12.3755C3.56338 12.893 3.98408 13.3137 4.50153 13.5773C4.75252 13.7052 5.07503 13.788 5.61228 13.8319C6.15829 13.8765 6.85754 13.8771 7.85 13.8771H9.15002C10.1425 13.8771 10.8417 13.8765 11.3877 13.8319C11.925 13.788 12.2475 13.7052 12.4985 13.5773C13.016 13.3137 13.4366 12.893 13.7003 12.3755C13.8282 12.1245 13.9109 11.802 13.9548 11.2648C13.9731 11.0411 13.984 10.7916 13.9905 10.5068Z" fill="white"/>
<path d="M7.00086 5.6322C7.00086 6.32386 6.44015 6.88457 5.74849 6.88457C5.05682 6.88457 4.49611 6.32386 4.49611 5.6322C4.49611 4.94053 5.05682 4.37982 5.74849 4.37982C6.44015 4.37982 7.00086 4.94053 7.00086 5.6322Z" fill="white"/>
</svg>
