<svg width="29" height="28" viewBox="0 0 29 28" fill="none" xmlns="http://www.w3.org/2000/svg">
<path d="M6.6665 11.0832C6.6665 14.2677 8.92005 18.9009 13.4272 24.9828L13.4271 24.9828C14.0026 25.7593 15.0986 25.9223 15.8751 25.3468C16.0138 25.2441 16.1364 25.1214 16.2392 24.9828C20.7463 18.9009 22.9998 14.2677 22.9998 11.0832C22.9998 6.56817 19.3482 2.9165 14.8332 2.9165C10.3182 2.9165 6.6665 6.56817 6.6665 11.0832ZM11.9165 11.0832C11.9165 9.47317 13.2232 8.1665 14.8332 8.1665C16.4432 8.1665 17.7498 9.47317 17.7498 11.0832C17.7498 12.6932 16.4432 13.9998 14.8332 13.9998C13.2232 13.9998 11.9165 12.6932 11.9165 11.0832Z" fill="url(#paint0_linear_636_9733)"/>
<defs>
<linearGradient id="paint0_linear_636_9733" x1="6.6665" y1="2.9165" x2="24.5688" y2="4.30713" gradientUnits="userSpaceOnUse">
<stop stop-color="#00B1E9"/>
<stop offset="1" stop-color="#008CB8"/>
</linearGradient>
</defs>
</svg>
