<svg width="24" height="24" viewBox="0 0 24 24" fill="none" xmlns="http://www.w3.org/2000/svg">
<path d="M3.09961 6.0001C3.09961 4.39847 4.39798 3.1001 5.99961 3.1001H10.7569C11.7912 3.1001 12.7832 3.51099 13.5146 4.24238L20.2546 10.9823C21.7776 12.5054 21.7776 14.9747 20.2546 16.4977L16.4972 20.2551C14.9742 21.7781 12.5048 21.7781 10.9818 20.2551L4.24189 13.5152C3.5105 12.7838 3.09961 11.7918 3.09961 10.7575V6.0001ZM5.99961 4.9001C5.3921 4.9001 4.89961 5.39258 4.89961 6.0001V10.7575C4.89961 11.3144 5.12086 11.8486 5.51469 12.2424L12.2546 18.9823C13.0747 19.8024 14.4043 19.8024 15.2244 18.9823L18.9818 15.225C19.8019 14.4049 19.8019 13.0752 18.9818 12.2551L12.2418 5.51517C11.848 5.12135 11.3139 4.9001 10.7569 4.9001H5.99961Z" fill="#3A9BCE"/>
<path d="M10.8413 9.09177C10.8413 10.0583 10.0578 10.8418 9.09128 10.8418C8.12478 10.8418 7.34128 10.0583 7.34128 9.09177C7.34128 8.12527 8.12478 7.34177 9.09128 7.34177C10.0578 7.34177 10.8413 8.12527 10.8413 9.09177Z" fill="#3A9BCE"/>
</svg>
