<svg width="165" height="165" viewBox="0 0 165 165" fill="none" xmlns="http://www.w3.org/2000/svg">
<path d="M31.5106 118.174C24.4293 109.811 20.6274 100.431 20.6274 85.2253C20.6274 58.4687 41.2524 35.4572 68.2231 33.1578C41.2524 46.9243 37.8149 62.2137 39.0249 76.1357C42.7168 74.0105 47.5499 73.2689 52.2868 73.7582C64.6893 75.0349 74.4656 86.3567 74.4656 100.431C74.4656 107.527 71.9304 114.333 67.4178 119.35C62.9052 124.368 56.7848 127.187 50.4031 127.187C46.8738 127.153 43.386 126.338 40.1426 124.791C36.8991 123.244 33.9648 120.994 31.5106 118.174ZM100.261 118.174C93.1793 109.811 89.3774 100.431 89.3774 85.2253C89.3774 58.4687 113.44 35.4572 136.973 33.1647C106.565 54.569 106.565 66.0361 107.775 76.1357C111.467 74.0105 116.3 73.2689 121.037 73.7582C133.439 75.0349 143.216 86.3567 143.216 100.431C143.216 107.527 140.68 114.333 136.168 119.35C131.655 124.368 125.535 127.187 119.153 127.187C115.624 127.153 112.136 126.338 108.893 124.791C105.649 123.244 102.715 120.994 100.261 118.174Z" fill="#F0F2F4"/>
</svg>
