<svg width="32" height="32" viewBox="0 0 32 32" fill="none" xmlns="http://www.w3.org/2000/svg">
<path d="M6.11018 22.919C4.73685 21.297 3.99951 19.4779 3.99951 16.5289C3.99951 11.3398 7.99951 6.87694 13.2302 6.431C7.99951 9.10086 7.33285 12.0661 7.56751 14.7661C8.28351 14.3539 9.22085 14.2101 10.1395 14.305C12.5448 14.5526 14.4408 16.7484 14.4408 19.4779C14.4408 20.8541 13.9492 22.174 13.074 23.1471C12.1988 24.1203 11.0119 24.667 9.77418 24.667C9.08972 24.6603 8.41329 24.5024 7.78426 24.2023C7.15523 23.9022 6.58616 23.466 6.11018 22.919ZM19.4435 22.919C18.0702 21.297 17.3328 19.4779 17.3328 16.5289C17.3328 11.3398 21.9995 6.87694 26.5635 6.43234C20.6662 10.5835 20.6662 12.8074 20.9008 14.7661C21.6168 14.3539 22.5542 14.2101 23.4728 14.305C25.8782 14.5526 27.7742 16.7484 27.7742 19.4779C27.7742 20.8541 27.2825 22.174 26.4073 23.1471C25.5322 24.1203 24.3452 24.667 23.1075 24.667C22.4231 24.6603 21.7466 24.5024 21.1176 24.2023C20.4886 23.9022 19.9195 23.466 19.4435 22.919Z" fill="black"/>
</svg>
