<svg width="24" height="24" viewBox="0 0 24 24" fill="none" xmlns="http://www.w3.org/2000/svg">
<path d="M10.7896 3.04095C11.0825 2.74806 11.5574 2.74807 11.8503 3.04097L15.0322 6.22306C15.3251 6.51595 15.3251 6.9908 15.0322 7.28369L11.8502 10.4658C11.5573 10.7587 11.0825 10.7587 10.7896 10.4658C10.4967 10.173 10.4967 9.69808 10.7895 9.40518L12.6913 7.50337H12C11.982 7.50337 11.9641 7.50274 11.9464 7.50149C10.4487 7.51575 9.09523 8.12761 8.11085 9.11175C7.11474 10.1076 6.5 11.4812 6.5 12.9997C6.5 14.5182 7.11474 15.8917 8.11085 16.8876C9.10696 17.8834 10.4809 18.4981 12 18.4981C13.5191 18.4981 14.893 17.8834 15.8892 16.8876C16.8853 15.8917 17.5 14.5182 17.5 12.9997C17.5 12.5855 17.8358 12.2497 18.25 12.2497C18.6642 12.2497 19 12.5855 19 12.9997C19 14.9321 18.2156 16.6827 16.9497 17.9484C15.6837 19.214 13.9327 19.9981 12 19.9981C10.0673 19.9981 8.31626 19.214 7.05032 17.9484C5.78437 16.6827 5 14.9321 5 12.9997C5 11.0672 5.78437 9.31659 7.05032 8.05096C8.31626 6.78533 10.0673 6.00123 12 6.00123C12.0192 6.00123 12.0383 6.00196 12.0571 6.00337H12.6913L10.7896 4.10161C10.4967 3.80871 10.4967 3.33383 10.7896 3.04095Z" fill="#3A9BCE"/>
</svg>
