<svg width="25" height="24" viewBox="0 0 25 24" fill="none" xmlns="http://www.w3.org/2000/svg">
<path d="M11 4C14.5899 4 17.5 6.91015 17.5 10.5C17.5 12.0246 16.9752 13.4265 16.0963 14.535L19.4874 17.9268C19.7803 18.2197 19.7803 18.6945 19.4874 18.9874C19.1945 19.2803 18.7197 19.2803 18.4268 18.9874L15.035 15.5963C13.9265 16.4752 12.5246 17 11 17C7.41015 17 4.5 14.0899 4.5 10.5C4.5 6.91015 7.41015 4 11 4ZM11 5.5C8.23858 5.5 6 7.73858 6 10.5C6 13.2614 8.23858 15.5 11 15.5C13.7614 15.5 16 13.2614 16 10.5C16 7.73858 13.7614 5.5 11 5.5Z" fill="white"/>
</svg>
