<svg width="25" height="25" viewBox="0 0 25 25" fill="none" xmlns="http://www.w3.org/2000/svg">
<path d="M18.4683 17.3639C18.1632 17.0588 17.6685 17.0588 17.3634 17.3639C17.0584 17.669 17.0584 18.1637 17.3634 18.4688L18.4683 17.3639ZM20.2801 21.3854C20.5852 21.6905 21.0798 21.6905 21.3849 21.3854C21.69 21.0803 21.69 20.5857 21.3849 20.2806L20.2801 21.3854ZM20.7804 12.0831C20.7804 7.27941 16.8863 3.38526 12.0826 3.38526V4.94775C16.0233 4.94775 19.2179 8.14235 19.2179 12.0831H20.7804ZM12.0826 3.38526C7.27892 3.38526 3.38477 7.27941 3.38477 12.0831H4.94726C4.94726 8.14235 8.14186 4.94775 12.0826 4.94775V3.38526ZM3.38477 12.0831C3.38477 16.8868 7.27892 20.7809 12.0826 20.7809V19.2184C8.14186 19.2184 4.94726 16.0238 4.94726 12.0831H3.38477ZM12.0826 20.7809C16.8863 20.7809 20.7804 16.8868 20.7804 12.0831H19.2179C19.2179 16.0238 16.0233 19.2184 12.0826 19.2184V20.7809ZM17.3634 18.4688L20.2801 21.3854L21.3849 20.2806L18.4683 17.3639L17.3634 18.4688Z" fill="#6C6C6C"/>
</svg>
