<svg width="24" height="24" viewBox="0 0 24 24" fill="none" xmlns="http://www.w3.org/2000/svg">
<path d="M10.5 4C14.0899 4 17 6.91015 17 10.5C17 12.0246 16.4752 13.4265 15.5963 14.535L18.9874 17.9268C19.2803 18.2197 19.2803 18.6945 18.9874 18.9874C18.6945 19.2803 18.2197 19.2803 17.9268 18.9874L14.535 15.5963C13.4265 16.4752 12.0246 17 10.5 17C6.91015 17 4 14.0899 4 10.5C4 6.91015 6.91015 4 10.5 4ZM10.5 5.5C7.73858 5.5 5.5 7.73858 5.5 10.5C5.5 13.2614 7.73858 15.5 10.5 15.5C13.2614 15.5 15.5 13.2614 15.5 10.5C15.5 7.73858 13.2614 5.5 10.5 5.5Z" fill="black"/>
</svg>
