<svg width="26" height="26" viewBox="0 0 26 26" fill="none" xmlns="http://www.w3.org/2000/svg">
<path fill-rule="evenodd" clip-rule="evenodd" d="M12.7197 22.2602C17.9885 22.2602 22.2597 17.989 22.2597 12.7202C22.2597 7.45138 17.9885 3.18018 12.7197 3.18018C7.45089 3.18018 3.17969 7.45138 3.17969 12.7202C3.17969 17.989 7.45089 22.2602 12.7197 22.2602ZM13.7197 6.89018C13.7197 6.33789 13.272 5.89018 12.7197 5.89018C12.1674 5.89018 11.7197 6.33789 11.7197 6.89018V12.4702C11.7197 13.1605 12.2793 13.7202 12.9697 13.7202H16.4297C16.982 13.7202 17.4297 13.2725 17.4297 12.7202C17.4297 12.1679 16.982 11.7202 16.4297 11.7202H13.7197V6.89018Z" fill="#666666"/>
</svg>
