<svg width="24" height="24" viewBox="0 0 24 24" fill="none" xmlns="http://www.w3.org/2000/svg">
<mask id="path-1-inside-1_38_122" fill="white">
<path d="M16 7C16 9.20914 14.2091 11 12 11C9.79086 11 8 9.20914 8 7C8 4.79086 9.79086 3 12 3C14.2091 3 16 4.79086 16 7Z"/>
<path d="M19 17.5C19 19.433 15.866 21 12 21C8.13401 21 5 19.433 5 17.5C5 15.567 8.13401 14 12 14C15.866 14 19 15.567 19 17.5Z"/>
</mask>
<path d="M14.5 7C14.5 8.38071 13.3807 9.5 12 9.5V12.5C15.0376 12.5 17.5 10.0376 17.5 7H14.5ZM12 9.5C10.6193 9.5 9.5 8.38071 9.5 7H6.5C6.5 10.0376 8.96243 12.5 12 12.5V9.5ZM9.5 7C9.5 5.61929 10.6193 4.5 12 4.5V1.5C8.96243 1.5 6.5 3.96243 6.5 7H9.5ZM12 4.5C13.3807 4.5 14.5 5.61929 14.5 7H17.5C17.5 3.96243 15.0376 1.5 12 1.5V4.5ZM17.5 17.5C17.5 17.5923 17.3862 18.0796 16.2789 18.6332C15.2614 19.142 13.7506 19.5 12 19.5V22.5C14.1154 22.5 16.1046 22.0745 17.6206 21.3165C19.0468 20.6034 20.5 19.3407 20.5 17.5H17.5ZM12 19.5C10.2494 19.5 8.73865 19.142 7.72107 18.6332C6.61378 18.0796 6.5 17.5923 6.5 17.5H3.5C3.5 19.3407 4.95322 20.6034 6.37943 21.3165C7.89536 22.0745 9.88463 22.5 12 22.5V19.5ZM6.5 17.5C6.5 17.4077 6.61378 16.9204 7.72107 16.3668C8.73865 15.858 10.2494 15.5 12 15.5V12.5C9.88463 12.5 7.89536 12.9255 6.37943 13.6835C4.95322 14.3966 3.5 15.6593 3.5 17.5H6.5ZM12 15.5C13.7506 15.5 15.2614 15.858 16.2789 16.3668C17.3862 16.9204 17.5 17.4077 17.5 17.5H20.5C20.5 15.6593 19.0468 14.3966 17.6206 13.6835C16.1046 12.9255 14.1154 12.5 12 12.5V15.5Z" fill="white" mask="url(#path-1-inside-1_38_122)"/>
</svg>
