<svg width="15" height="15" viewBox="0 0 15 15" fill="none" xmlns="http://www.w3.org/2000/svg">
<path fill-rule="evenodd" clip-rule="evenodd" d="M12.9158 7.41909C12.9158 7.19968 12.7971 7.05558 12.5597 6.76739C11.6913 5.71305 9.77591 3.75 7.55261 3.75C5.3293 3.75 3.41391 5.71305 2.5455 6.76739C2.30814 7.05558 2.18945 7.19968 2.18945 7.41909C2.18945 7.63851 2.30814 7.7826 2.5455 8.07079C3.41391 9.12513 5.3293 11.0882 7.55261 11.0882C9.77591 11.0882 11.6913 9.12513 12.5597 8.07079C12.7971 7.7826 12.9158 7.63851 12.9158 7.41909ZM7.55245 9.25375C8.56565 9.25375 9.387 8.4324 9.387 7.4192C9.387 6.40601 8.56565 5.58466 7.55245 5.58466C6.53926 5.58466 5.71791 6.40601 5.71791 7.4192C5.71791 8.4324 6.53926 9.25375 7.55245 9.25375Z" fill="#666666"/>
</svg>
