<svg width="20" height="20" viewBox="0 0 20 20" fill="none" xmlns="http://www.w3.org/2000/svg">
<path d="M9.22396 19.25H10.026C14.3894 19.25 16.563 19.25 17.9105 17.9025C19.25 16.555 19.25 14.3733 19.25 10.026V9.20792C19.25 4.87667 19.25 2.695 17.9105 1.3475C16.563 0 14.3814 0 10.026 0H9.22396C4.86062 0 2.68698 0 1.33948 1.3475C0 2.695 0 4.87667 0 9.22396V10.0421C0 14.3733 0 16.555 1.3475 17.9025C2.695 19.25 4.87667 19.25 9.22396 19.25Z" fill="#0066FF"/>
<path d="M10.1777 13.75C5.9496 13.75 3.53798 10.9112 3.4375 6.1875H5.5554C5.62496 9.65459 7.18633 11.1232 8.42306 11.426V6.1875H10.4173V9.17768C11.6385 9.04899 12.9217 7.68637 13.3545 6.1875H15.3487C15.1856 6.96486 14.8605 7.70089 14.3937 8.34957C13.9268 8.99824 13.3283 9.54559 12.6357 9.95739C13.4089 10.3337 14.0918 10.8663 14.6394 11.52C15.187 12.1738 15.5868 12.9338 15.8125 13.75H13.6173C13.4147 13.0411 13.003 12.4065 12.4338 11.9257C11.8645 11.445 11.1631 11.1395 10.4173 11.0475V13.75H10.1777Z" fill="white"/>
</svg>
